<svg height="200px" width="200px" version="1.1" id="Layer_1" xmlns="http://www.w3.org/2000/svg" xmlns:xlink="http://www.w3.org/1999/xlink" viewBox="0 0 496 496" xml:space="preserve" fill="#000000"><g id="SVGRepo_bgCarrier" stroke-width="0"></g><g id="SVGRepo_tracerCarrier" stroke-linecap="round" stroke-linejoin="round"></g><g id="SVGRepo_iconCarrier"> <path style="fill:#FFFFFF;" d="M496,369.6c0,27.2-21.6,46.4-48,46.4H48c-26.4,0-48-19.2-48-46.4V126.4C0,99.2,21.6,80,48,80h400 c26.4,0,48,19.2,48,46.4V369.6z"></path> <path style="fill:#E9F3F4;" d="M48,80h400c26.4,0,48,19.2,48,46.4v243.2c0,27.2-25.6,46.4-52,46.4"></path> <g> <path style="fill:#D9ECED;" d="M496,368.8c0,27.2-21.6,47.2-48,47.2H48c-26.4,0-48-20.8-48-48"></path> <path style="fill:#D9ECED;" d="M48,80h400c26.4,0,48,19.2,48,46.4V216"></path> </g> <circle style="fill:#EC1C24;" cx="248" cy="248" r="103.2"></circle> <path style="fill:#CE0909;" d="M175.2,175.2c40-40,105.6-40,146.4,0c40,40,40,105.6,0,146.4"></path> </g></svg>